<?xml version="1.0" encoding="utf-8"?>
<!-- Generator: Adobe Illustrator 24.0.1, SVG Export Plug-In . SVG Version: 6.00 Build 0)  -->
<svg version="1.1" id="Layer_1" xmlns="http://www.w3.org/2000/svg" xmlns:xlink="http://www.w3.org/1999/xlink" x="0px" y="0px"
	 viewBox="0 0 775.1 293.27" style="enable-background:new 0 0 775.1 293.27;" xml:space="preserve">
<style type="text/css">
	.st0{fill:#603913;}
	.st1{fill:#EA8C1C;}
</style>
<g>
	<g>
		<path class="st0" d="M295.3,127.86c-0.35,0-0.65-0.04-0.91-0.13v41.99h9.78c1.65,0,3.04,0.15,4.17,0.46
			c1.13,0.31,1.7,0.98,1.7,2.02c0,0.44-0.09,0.74-0.26,0.91c-0.18,0.18-0.57,0.33-1.17,0.46c-0.61,0.13-1.5,0.2-2.67,0.2
			c-1.17,0-2.72,0-4.63,0h-22.43c-2.52,0-4.09-0.2-4.69-0.59c-0.61-0.39-0.91-0.8-0.91-1.24c0-0.52,0.41-0.96,1.24-1.3
			c0.83-0.35,2.67-0.52,5.54-0.52c1.13,0,2.22-0.07,3.26-0.2c1.04-0.13,1.98-0.43,2.8-0.91c0.83-0.48,1.48-1.13,1.96-1.96
			c0.48-0.83,0.72-1.93,0.72-3.33c0-7.3,0.04-14.56,0.13-21.78c0.09-7.22,0.13-14.52,0.13-21.91c0-7.39-0.13-14.67-0.39-21.84
			c-0.26-7.17-0.39-14.45-0.39-21.84c0-1.39-0.22-2.46-0.65-3.2c-0.44-0.74-1.09-1.28-1.96-1.63c-0.87-0.35-1.96-0.54-3.26-0.59
			c-1.3-0.04-2.83-0.07-4.56-0.07c-0.7,0-1.56-0.09-2.61-0.26c-1.04-0.17-1.56-0.78-1.56-1.83c0-0.43,0.15-0.76,0.46-0.98
			c0.3-0.22,0.67-0.39,1.11-0.52c0.43-0.13,0.87-0.2,1.3-0.2c0.43,0,0.74,0,0.91,0c3.48,0,6.3-0.02,8.48-0.07
			c2.17-0.04,4.28-0.09,6.32-0.13c2.04-0.04,4.28-0.09,6.72-0.13c2.43-0.04,5.61-0.07,9.52-0.07c4,0,8.26,0.52,12.78,1.56
			c4.52,1.04,8.69,2.72,12.52,5.02c3.82,2.3,7.02,5.35,9.58,9.13c2.56,3.78,3.85,8.41,3.85,13.89c0,5.83-1.2,10.76-3.59,14.8
			c-2.39,4.04-5.52,7.3-9.39,9.78c-3.87,2.48-8.28,4.26-13.24,5.35c-4.96,1.09-10.04,1.63-15.26,1.63c3.91,6.09,7.87,12.08,11.87,18
			c1.65,2.52,3.43,5.13,5.35,7.82c1.91,2.7,3.85,5.35,5.8,7.95c1.96,2.61,3.89,5.11,5.8,7.5c1.91,2.39,3.78,4.54,5.61,6.46h12.52
			c2,0,3.5,0.09,4.5,0.26c1,0.17,1.5,0.69,1.5,1.56c0,0.52-0.24,0.93-0.72,1.24c-0.48,0.3-1.48,0.52-3,0.65
			c-1.52,0.13-3.67,0.2-6.45,0.2c-2.78,0-6.43,0-10.95,0c-0.78,0-1.98-0.87-3.59-2.61c-1.61-1.74-3.5-4.04-5.67-6.91
			c-2.17-2.87-4.52-6.13-7.04-9.78c-2.52-3.65-5.11-7.39-7.76-11.21c-2.65-3.82-5.28-7.58-7.89-11.28c-2.61-3.69-5.04-6.98-7.3-9.85
			H295.3z M341.33,97.08c0-3.74-0.67-6.95-2.02-9.65c-1.35-2.69-3.11-5.02-5.28-6.98c-2.17-1.96-4.63-3.54-7.37-4.76
			c-2.74-1.22-5.5-2.15-8.28-2.8c-2.78-0.65-5.46-1.11-8.02-1.37c-2.57-0.26-4.76-0.39-6.59-0.39c-1.22,0-2.39,0.04-3.52,0.13
			c-1.13,0.09-2.13,0.22-3,0.39c-1.04,0.18-2,0.31-2.87,0.39v50.86c0.09,0,0.39,0.02,0.91,0.07c0.52,0.04,1.11,0.07,1.76,0.07
			s1.26,0.02,1.83,0.07c0.56,0.04,0.89,0.07,0.98,0.07c4.35,0,8.95-0.35,13.82-1.04c4.87-0.69,9.34-2,13.43-3.91
			c4.09-1.91,7.48-4.56,10.17-7.95C339.98,106.86,341.33,102.47,341.33,97.08z"/>
		<path class="st0" d="M432.09,173.37c0.43,1.74,1.74,2.87,3.91,3.39c2.17,0.52,5.35,0.78,9.52,0.78c1.22,0,2.3,0.07,3.26,0.2
			c0.96,0.13,1.43,0.59,1.43,1.37c0,1.22-1.52,1.83-4.56,1.83h-27.78c-1.56,0-2.63-0.13-3.19-0.39c-0.57-0.26-0.85-0.74-0.85-1.43
			c0-0.78,0.65-1.28,1.96-1.5c1.3-0.22,2.74-0.37,4.3-0.46c1.56-0.09,3-0.31,4.3-0.65c1.3-0.35,1.96-1.04,1.96-2.09
			c0-0.52-0.18-1.56-0.52-3.13c-0.35-1.56-0.78-3.39-1.3-5.48c-0.52-2.09-1.09-4.32-1.7-6.72c-0.61-2.39-1.22-4.65-1.83-6.78
			c-0.61-2.13-1.15-4.06-1.63-5.8c-0.48-1.74-0.8-3-0.98-3.78h-35.34c-0.61,2.09-1.3,4.39-2.09,6.91c-0.78,2.52-1.52,4.98-2.22,7.37
			c-0.7,2.39-1.28,4.56-1.76,6.52c-0.48,1.96-0.72,3.41-0.72,4.37c0,0.61,0.3,1.04,0.91,1.3c0.61,0.26,1.37,0.46,2.28,0.59
			c0.91,0.13,1.91,0.2,3,0.2c1.09,0,2.11,0,3.06,0c0.87,0,1.83,0.07,2.87,0.2c1.04,0.13,1.56,0.67,1.56,1.63
			c0,0.44-0.31,0.87-0.91,1.3c-0.61,0.44-1.78,0.65-3.52,0.65h-32.86c-0.78,0-1.48-0.13-2.09-0.39c-0.61-0.26-0.91-0.74-0.91-1.43
			c0-0.96,0.87-1.43,2.61-1.43c0.87,0,1.94-0.04,3.19-0.13c1.26-0.09,2.48-0.17,3.65-0.26c1.17-0.09,2.22-0.17,3.13-0.26
			c0.91-0.09,1.54-0.13,1.89-0.13c1.91-0.17,3.3-0.65,4.17-1.43c0.87-0.78,1.61-1.96,2.22-3.52c1.3-3.74,2.8-8.32,4.5-13.76
			c1.7-5.43,3.41-11.28,5.15-17.54c1.74-6.26,3.5-12.67,5.28-19.23c1.78-6.56,3.5-12.82,5.15-18.78c1.65-5.95,3.15-11.39,4.5-16.3
			c1.35-4.91,2.46-8.85,3.33-11.8c0.17-0.69,0.5-1.28,0.98-1.76c0.48-0.48,1.06-0.72,1.76-0.72c0.43,0,0.91,0.18,1.43,0.52
			c0.52,0.35,0.91,1,1.17,1.96L432.09,173.37z M400.93,75.31c-0.35,1.74-0.91,4.15-1.7,7.24c-0.78,3.09-1.7,6.5-2.74,10.24
			c-1.04,3.74-2.13,7.72-3.26,11.93c-1.13,4.22-2.24,8.35-3.33,12.39c-1.09,4.04-2.09,7.89-3,11.54c-0.91,3.65-1.67,6.78-2.28,9.39
			c2.69,0.09,5.35,0.15,7.95,0.2c2.61,0.04,5.26,0.07,7.95,0.07c2.69,0,5.41-0.02,8.15-0.07c2.74-0.04,5.45-0.11,8.15-0.2
			c-1.04-4.26-2.22-9.04-3.52-14.34c-1.3-5.3-2.67-10.74-4.11-16.3c-1.43-5.56-2.85-11.1-4.24-16.63
			C403.58,85.24,402.23,80.09,400.93,75.31z"/>
		<path class="st0" d="M468.87,169.72h12.52c0.96,0,1.85,0.22,2.67,0.65c0.83,0.44,1.24,1,1.24,1.7c0,1.13-0.87,1.7-2.61,1.7h-27.65
			c-1.22,0-2.41-0.11-3.59-0.33c-1.17-0.22-1.76-0.67-1.76-1.37c0-0.78,0.43-1.3,1.3-1.56c0.87-0.26,1.7-0.39,2.48-0.39
			c0.87,0,1.85-0.02,2.93-0.07c1.09-0.04,2.13-0.26,3.13-0.65c1-0.39,1.83-1,2.48-1.83c0.65-0.83,0.98-1.98,0.98-3.46
			c0-7.13,0.09-14.1,0.26-20.93c0.17-6.82,0.26-14.06,0.26-21.71c0-7.65-0.09-15.63-0.26-23.93c-0.18-8.3-0.26-16.28-0.26-23.93
			c0-0.78-0.37-1.37-1.11-1.76c-0.74-0.39-1.65-0.67-2.74-0.85c-1.09-0.17-2.24-0.28-3.46-0.33c-1.22-0.04-2.26-0.07-3.13-0.07
			c-0.96,0-2-0.11-3.13-0.33c-1.13-0.22-1.7-0.76-1.7-1.63c0-0.96,0.61-1.52,1.83-1.7c1.22-0.17,2.22-0.26,3-0.26h23.73
			c2.78,0,4.58,0.15,5.41,0.46c0.83,0.31,1.24,0.8,1.24,1.5c0,0.96-0.54,1.52-1.63,1.7c-1.09,0.18-2.15,0.26-3.19,0.26
			c-0.44,0-1.15,0.02-2.15,0.07c-1,0.04-2.02,0.15-3.06,0.33c-1.04,0.18-1.98,0.5-2.8,0.98c-0.83,0.48-1.24,1.11-1.24,1.89V169.72z
			 M472.65,49.88c0,0.7-0.61,1.59-1.83,2.67c-1.22,1.09-2.61,2.15-4.17,3.19c-1.56,1.04-3.11,1.96-4.63,2.74
			c-1.52,0.78-2.59,1.17-3.19,1.17c-0.7,0-1.04-0.48-1.04-1.43c0-0.78,0.52-1.83,1.56-3.13c1.04-1.3,2.26-2.54,3.65-3.72
			c1.39-1.17,2.78-2.19,4.17-3.06c1.39-0.87,2.39-1.3,3-1.3c0.69,0,1.28,0.18,1.76,0.52C472.41,47.88,472.65,48.66,472.65,49.88z"/>
		<path class="st1" d="M562.76,137.12c0,0.09-0.04,0.85-0.13,2.28c-0.09,1.43-0.2,3.26-0.33,5.48c-0.13,2.22-0.26,4.61-0.39,7.17
			c-0.13,2.57-0.26,5.04-0.39,7.43c-0.13,2.39-0.24,4.52-0.33,6.39c-0.09,1.87-0.13,3.15-0.13,3.85c0,2-0.35,3.17-1.04,3.52
			c-0.7,0.35-1.91,0.52-3.65,0.52c-5.04,0-10.09-0.02-15.13-0.07c-5.04-0.04-10.09-0.07-15.13-0.07c-5.04,0-10.06,0.02-15.06,0.07
			c-5,0.04-10.02,0.07-15.06,0.07c-1.91,0-3.35-0.15-4.3-0.46c-0.96-0.3-1.43-0.98-1.43-2.02c0-0.43,0.02-0.8,0.07-1.11
			c0.04-0.3,0.17-0.63,0.39-0.98c0.22-0.35,0.5-0.76,0.85-1.24c0.35-0.48,0.83-1.19,1.43-2.15c0.61-0.96,1.96-2.95,4.04-6
			c2.09-3.04,4.58-6.74,7.5-11.08c2.91-4.35,6.13-9.15,9.65-14.41c3.52-5.26,7.06-10.58,10.63-15.97
			c3.56-5.39,7.04-10.65,10.43-15.78c3.39-5.13,6.39-9.76,9-13.89c2.61-4.13,4.69-7.56,6.26-10.3c1.56-2.74,2.35-4.37,2.35-4.89
			c0-0.43-0.04-0.78-0.13-1.04c-0.09-0.26-0.33-0.48-0.72-0.65c-0.39-0.17-1-0.28-1.83-0.33c-0.83-0.04-2.02-0.07-3.59-0.07h-41.73
			c-2.52,0-4.06,0.41-4.63,1.24c-0.57,0.83-0.85,2.28-0.85,4.37c0,0.7,0,1.74,0,3.13c0,1.39-0.02,2.87-0.07,4.43
			c-0.04,1.56-0.07,3.11-0.07,4.63c0,1.52,0,2.76,0,3.72c0,3.22-0.18,5.22-0.52,6c-0.35,0.78-1,1.17-1.96,1.17
			c-0.96,0-1.59-0.46-1.89-1.37c-0.31-0.91-0.46-2.02-0.46-3.33c0-2,0.02-3.93,0.07-5.8c0.04-1.87,0.07-3.8,0.07-5.8
			c0-2-0.02-3.96-0.07-5.87c-0.04-1.91-0.07-3.87-0.07-5.87c0-1.3,0.09-2.32,0.26-3.06c0.17-0.74,0.52-1.28,1.04-1.63
			c0.52-0.35,1.24-0.54,2.15-0.59c0.91-0.04,2.11-0.07,3.59-0.07c4.43,0,8.85,0.04,13.24,0.13c4.39,0.09,8.8,0.13,13.24,0.13
			c4.43,0,8.87-0.04,13.3-0.13c4.43-0.09,8.87-0.13,13.3-0.13c1.74,0,3.3,0.11,4.69,0.33c1.39,0.22,2.09,0.94,2.09,2.15
			c0,0.26-0.22,0.78-0.65,1.56c-0.44,0.78-0.94,1.65-1.5,2.61c-0.57,0.96-1.11,1.83-1.63,2.61c-0.52,0.78-0.83,1.3-0.91,1.56
			c-1.83,3.13-4.04,6.8-6.65,11.02c-2.61,4.22-5.43,8.72-8.48,13.5c-3.04,4.78-6.22,9.72-9.52,14.8c-3.3,5.09-6.54,10.04-9.72,14.87
			c-3.17,4.82-6.17,9.39-9,13.69c-2.83,4.3-5.33,8.09-7.5,11.35c-2.17,3.26-3.89,5.89-5.15,7.89c-1.26,2-1.89,3.09-1.89,3.26
			c0,0.52,0.17,0.87,0.52,1.04c0.35,0.18,1.04,0.26,2.09,0.26h47.21c1.04,0,2-0.02,2.87-0.07c0.87-0.04,1.67-0.2,2.41-0.46
			c0.74-0.26,1.32-0.69,1.76-1.3c0.43-0.61,0.69-1.48,0.78-2.61c0.17-1.74,0.35-3.87,0.52-6.39c0.17-2.52,0.35-5.09,0.52-7.69
			c0.17-2.61,0.33-5.09,0.46-7.43c0.13-2.35,0.2-4.17,0.2-5.48s0.24-2.35,0.72-3.13c0.48-0.78,1.06-1.17,1.76-1.17
			c0.43,0,0.91,0.24,1.43,0.72C562.5,134.66,562.76,135.64,562.76,137.12z"/>
		<path class="st1" d="M644.39,133.34c1.22,0,1.93,0.46,2.15,1.37c0.22,0.91,0.33,1.89,0.33,2.93c0,0.78-0.07,2.37-0.2,4.76
			c-0.13,2.39-0.31,5.15-0.52,8.28c-0.22,3.13-0.44,6.39-0.65,9.78c-0.22,3.39-0.46,6.39-0.72,9c-0.18,2.17-0.7,3.44-1.57,3.78
			c-0.87,0.35-2.17,0.52-3.91,0.52c-5.3,0-10.45-0.04-15.45-0.13c-5-0.09-10.15-0.13-15.45-0.13c-5.3,0-10.59,0.02-15.84,0.07
			c-5.26,0.04-10.54,0.11-15.84,0.2c-1.3,0-2.63-0.07-3.98-0.2c-1.35-0.13-2.02-0.54-2.02-1.24c0-0.96,0.41-1.56,1.24-1.83
			c0.83-0.26,2.11-0.39,3.85-0.39c4.09,0,6.87-0.33,8.35-0.98c1.48-0.65,2.22-1.89,2.22-3.72c0-3.04,0-5.72,0-8.02
			c0-2.3,0.02-4.48,0.07-6.52c0.04-2.04,0.07-4.06,0.07-6.06c0-2,0.02-4.24,0.07-6.72c0.04-2.48,0.07-5.3,0.07-8.48
			c0-3.17,0-6.93,0-11.28c0-4.87-0.04-9.26-0.13-13.17c-0.09-3.91-0.18-7.54-0.26-10.89c-0.09-3.35-0.18-6.5-0.26-9.45
			c-0.09-2.95-0.13-5.91-0.13-8.87c0-1.3-0.33-2.28-0.98-2.93c-0.65-0.65-1.48-1.15-2.48-1.5c-1-0.35-2.04-0.54-3.13-0.59
			c-1.09-0.04-2.07-0.07-2.93-0.07c-1.48,0-2.72-0.09-3.72-0.26c-1-0.17-1.5-0.74-1.5-1.7c0-0.96,0.56-1.56,1.7-1.83
			c1.13-0.26,2.35-0.39,3.65-0.39c2.87,0,5.82,0.02,8.87,0.07c3.04,0.04,5.95,0.07,8.74,0.07c2.78,0,5.37,0.02,7.76,0.07
			c2.39,0.04,4.41,0.07,6.06,0.07c3.22,0,5.85-0.02,7.89-0.07c2.04-0.04,4.04-0.07,6-0.07s4.11-0.02,6.46-0.07
			c2.35-0.04,5.43-0.07,9.26-0.07c1.22,0,2.13,0.33,2.74,0.98c0.61,0.65,0.91,1.89,0.91,3.72v17.47c0,1.65-0.13,3.06-0.39,4.24
			c-0.26,1.17-0.87,1.76-1.83,1.76c-1.3,0-2.07-0.56-2.28-1.7c-0.22-1.13-0.33-2.3-0.33-3.52V75.04c0-1.65-0.59-2.67-1.76-3.06
			c-1.17-0.39-2.2-0.59-3.06-0.59h-39.51v44.99c2.52,0.09,5,0.18,7.43,0.26c2.43,0.09,4.91,0.13,7.43,0.13
			c1.22,0,2.56-0.02,4.04-0.07c1.48-0.04,2.89-0.09,4.24-0.13c1.35-0.04,2.54-0.09,3.59-0.13c1.04-0.04,1.78-0.07,2.22-0.07
			c0.52,0,0.93-0.46,1.24-1.37c0.3-0.91,0.52-2,0.65-3.26c0.13-1.26,0.22-2.56,0.26-3.91c0.04-1.35,0.07-2.41,0.07-3.2
			c0-0.09,0.02-0.35,0.07-0.78c0.04-0.43,0.13-0.89,0.26-1.37c0.13-0.48,0.35-0.89,0.65-1.24c0.3-0.35,0.72-0.52,1.24-0.52
			c1.04,0,1.67,0.35,1.89,1.04c0.22,0.7,0.33,1.52,0.33,2.48c0,2.52-0.04,4.98-0.13,7.37c-0.09,2.39-0.13,4.85-0.13,7.37
			c0,2.52,0.04,5,0.13,7.43c0.09,2.43,0.13,4.87,0.13,7.3c0,1.48-0.24,2.43-0.72,2.87c-0.48,0.44-0.89,0.65-1.24,0.65
			c-0.61,0-1.13-0.35-1.56-1.04c-0.44-0.69-0.65-1.61-0.65-2.74c0-1.13-0.09-2.41-0.26-3.85c-0.18-1.43-0.48-2.76-0.91-3.98
			c-0.44-1.22-1.07-2.24-1.89-3.06c-0.83-0.83-1.89-1.24-3.19-1.24c-1.22,0-2.61-0.02-4.17-0.07c-1.56-0.04-3.61-0.07-6.13-0.07
			c-2.52,0-5,0.02-7.43,0.07c-2.43,0.04-4.91,0.11-7.43,0.2v47.6h42.9c0.61,0,1.24-0.04,1.89-0.13c0.65-0.09,1.24-0.28,1.76-0.59
			c0.52-0.3,0.96-0.78,1.3-1.43c0.35-0.65,0.56-1.54,0.65-2.67c0.09-1.13,0.22-2.8,0.39-5.02c0.17-2.22,0.35-4.58,0.52-7.11
			c0.17-2.52,0.33-5.02,0.46-7.5c0.13-2.48,0.24-4.63,0.33-6.45c0.09-1.74,0.37-2.98,0.85-3.72
			C643.5,133.71,643.95,133.34,644.39,133.34z"/>
		<path class="st0" d="M662.77,161.89c0,2,0.04,3.78,0.13,5.35c0,0.7,0.02,1.35,0.07,1.96c0.04,0.61,0.07,1.17,0.07,1.7
			c0,0.61,0.04,1.17,0.13,1.7c0,2.17-0.83,3.26-2.48,3.26c-0.87,0-1.52-0.35-1.96-1.04c-0.44-0.7-0.65-1.35-0.65-1.96
			c0-0.52,0.02-1.3,0.07-2.35c0.04-1.04,0.11-2.22,0.2-3.52c0.09-1.3,0.15-2.61,0.2-3.91c0.04-1.3,0.07-2.43,0.07-3.39
			c0-1.39-0.02-2.56-0.07-3.52c-0.04-0.96-0.07-1.89-0.07-2.8c0-0.91-0.02-1.85-0.07-2.8c-0.04-0.96-0.07-2.13-0.07-3.52
			c0-1.22,0.13-2.26,0.39-3.13c0.26-0.87,0.96-1.3,2.09-1.3c1.22,0,2,0.8,2.35,2.41c0.35,1.61,0.52,3.37,0.52,5.28
			c0,2.7,0.63,5.35,1.89,7.95c1.26,2.61,3.08,4.91,5.48,6.91c2.39,2,5.35,3.63,8.87,4.89c3.52,1.26,7.58,1.89,12.19,1.89
			c3.13,0,6.17-0.39,9.13-1.17c2.95-0.78,5.59-1.89,7.89-3.33c2.3-1.43,4.17-3.22,5.61-5.35c1.43-2.13,2.15-4.54,2.15-7.24
			c0-2.69-1.13-5.09-3.39-7.17c-2.26-2.09-5.07-3.98-8.41-5.67c-3.35-1.7-6.91-3.28-10.69-4.76c-3.78-1.48-7.24-2.95-10.37-4.43
			c-2.78-1.3-5.61-2.78-8.48-4.43c-2.87-1.65-5.52-3.76-7.95-6.32c-2.43-2.56-4.41-5.69-5.93-9.39c-1.52-3.69-2.28-8.28-2.28-13.76
			c0-4.87,1.02-9.39,3.06-13.56c2.04-4.17,4.67-7.8,7.89-10.89c3.22-3.08,6.82-5.5,10.82-7.24c4-1.74,7.95-2.61,11.87-2.61
			c6.34,0,11.74,1.72,16.17,5.15c4.43,3.44,7.95,8.93,10.56,16.5c-0.35-5.48-0.61-9.54-0.78-12.19c-0.18-2.65-0.26-4.02-0.26-4.11
			c0-2.17,0.83-3.26,2.48-3.26c0.87,0,1.52,0.35,1.96,1.04c0.43,0.7,0.65,1.35,0.65,1.96c0,3.04-0.09,6.19-0.26,9.45
			c-0.18,3.26-0.26,6.46-0.26,9.58c0,2.78,0.04,5.17,0.13,7.17c0.09,2,0.13,4.39,0.13,7.17c0,1.22-0.13,2.26-0.39,3.13
			c-0.26,0.87-0.96,1.3-2.09,1.3c-1.22,0-1.98-0.8-2.28-2.41c-0.31-1.61-0.46-3.37-0.46-5.28c-0.35-4.69-1.17-8.98-2.48-12.84
			c-1.3-3.87-3.02-7.17-5.15-9.91c-2.13-2.74-4.65-4.85-7.56-6.32c-2.91-1.48-6.11-2.22-9.58-2.22c-4.09,0-7.89,0.89-11.41,2.67
			c-3.52,1.78-6.56,4.15-9.13,7.11c-2.57,2.96-4.59,6.32-6.06,10.11c-1.48,3.78-2.22,7.67-2.22,11.67c0,4.35,0.59,8,1.76,10.95
			c1.17,2.96,2.74,5.5,4.69,7.63c1.96,2.13,4.19,3.91,6.72,5.35c2.52,1.43,5.09,2.76,7.69,3.98c2.61,1.22,5.98,2.61,10.11,4.17
			c4.13,1.56,8.17,3.44,12.13,5.61c3.95,2.17,7.35,4.65,10.17,7.43c2.82,2.78,4.24,6,4.24,9.65c0,3.83-1,7.06-3,9.72
			c-2,2.65-4.5,4.82-7.5,6.52c-3,1.7-6.24,2.91-9.72,3.65c-3.48,0.74-6.65,1.11-9.52,1.11c-2.78,0-5.63-0.26-8.54-0.78
			c-2.91-0.52-5.72-1.32-8.41-2.41c-2.7-1.09-5.15-2.52-7.37-4.3C665.97,166.57,664.16,164.42,662.77,161.89z"/>
	</g>
	<g>
		<path d="M275.36,231.56c-1.83-1.98-2.75-4.75-2.75-8.29c0-2.45,0.44-4.6,1.32-6.43c0.88-1.83,2.14-3.25,3.77-4.25
			c1.64-1,3.53-1.5,5.68-1.5c2.42,0,4.51,0.83,6.27,2.5l-1.23,1.23c-0.73-0.7-1.5-1.2-2.32-1.52c-0.82-0.32-1.73-0.48-2.73-0.48
			c-1.73,0-3.27,0.45-4.61,1.34c-1.35,0.89-2.39,2.14-3.14,3.75c-0.74,1.61-1.11,3.44-1.11,5.5c0,2.91,0.78,5.2,2.34,6.89
			s3.69,2.52,6.39,2.52c1.12,0,2.26-0.17,3.43-0.52c1.17-0.35,2.43-0.9,3.79-1.66l0.86,1.41c-1.21,0.79-2.55,1.4-4,1.84
			c-1.45,0.44-2.89,0.66-4.32,0.66C279.75,234.53,277.19,233.54,275.36,231.56z"/>
		<path d="M328.53,229.97c1.11,2.02,3.33,3.02,6.66,3.02c1.24,0,2.41-0.17,3.5-0.52s2.32-0.9,3.68-1.66l0.86,1.41
			c-1.18,0.79-2.48,1.4-3.91,1.84c-1.42,0.44-2.89,0.66-4.41,0.66c-3.15,0-5.6-1-7.34-3c-1.74-2-2.61-4.68-2.61-8.04
			c0-2.39,0.41-4.53,1.23-6.41c0.82-1.88,1.98-3.34,3.48-4.39c1.5-1.05,3.26-1.57,5.29-1.57c1.76,0,3.32,0.4,4.7,1.2
			c1.38,0.8,2.45,1.91,3.23,3.32c0.77,1.41,1.16,3.02,1.16,4.84c0,0.54-0.06,1.52-0.18,2.91h-17
			C326.88,225.82,327.43,227.95,328.53,229.97z M342.06,221.85c0.06-0.33,0.09-0.76,0.09-1.27c0-1.45-0.33-2.76-0.98-3.93
			c-0.65-1.17-1.52-2.07-2.61-2.73c-1.09-0.65-2.29-0.98-3.59-0.98c-2.12,0-3.92,0.82-5.39,2.45c-1.47,1.64-2.34,3.79-2.61,6.45
			H342.06z"/>
		<path d="M391.18,211.63v1.73c-0.88-0.15-1.64-0.23-2.27-0.23c-1.73,0-3.12,0.42-4.18,1.27c-0.45,0.39-0.94,0.9-1.45,1.52
			c-0.52,0.62-0.95,1.28-1.32,1.98v16.32h-1.91v-16.41c0-1.33-0.14-2.39-0.41-3.16c-0.27-0.77-0.7-1.52-1.27-2.25l1.27-1.23
			c0.67,0.64,1.2,1.36,1.61,2.16c0.41,0.8,0.64,1.64,0.7,2.52c0.39-0.79,0.86-1.5,1.41-2.14c0.55-0.64,1.09-1.12,1.64-1.46
			c1.03-0.64,2.3-0.95,3.82-0.95C389.24,211.31,390.03,211.42,391.18,211.63z"/>
		<path d="M424.09,213.76c-0.39-0.48-0.82-0.88-1.27-1.18l1.09-1.5c0.79,0.55,1.43,1.2,1.93,1.95c0.5,0.76,0.95,1.65,1.34,2.68
			l6.14,15.95l7.45-19.95h2l-8.36,22.5h-2.14l-7.32-19.04C424.77,214.72,424.48,214.25,424.09,213.76z"/>
		<path d="M479.6,229.97c1.11,2.02,3.33,3.02,6.66,3.02c1.24,0,2.41-0.17,3.5-0.52s2.32-0.9,3.68-1.66l0.86,1.41
			c-1.18,0.79-2.48,1.4-3.91,1.84c-1.42,0.44-2.89,0.66-4.41,0.66c-3.15,0-5.6-1-7.34-3c-1.74-2-2.61-4.68-2.61-8.04
			c0-2.39,0.41-4.53,1.23-6.41c0.82-1.88,1.98-3.34,3.48-4.39c1.5-1.05,3.26-1.57,5.29-1.57c1.76,0,3.32,0.4,4.7,1.2
			c1.38,0.8,2.45,1.91,3.23,3.32c0.77,1.41,1.16,3.02,1.16,4.84c0,0.54-0.06,1.52-0.18,2.91h-17
			C477.94,225.82,478.5,227.95,479.6,229.97z M493.12,221.85c0.06-0.33,0.09-0.76,0.09-1.27c0-1.45-0.33-2.76-0.98-3.93
			c-0.65-1.17-1.52-2.07-2.61-2.73c-1.09-0.65-2.29-0.98-3.59-0.98c-2.12,0-3.92,0.82-5.39,2.45c-1.47,1.64-2.34,3.79-2.61,6.45
			H493.12z"/>
		<path d="M525.71,244.44l1.59-1.05c0.54,0.7,1.15,1.05,1.82,1.05c0.58,0,1.05-0.22,1.41-0.66c0.36-0.44,0.54-0.99,0.54-1.66v-30.59
			h1.91v30.59c0,1.21-0.36,2.2-1.07,2.98c-0.71,0.77-1.64,1.16-2.79,1.16C527.78,246.26,526.65,245.65,525.71,244.44z
			 M530.84,207.67c-0.3-0.3-0.46-0.7-0.46-1.18c0-0.48,0.15-0.88,0.46-1.18c0.3-0.3,0.7-0.45,1.18-0.45c0.48,0,0.89,0.15,1.2,0.45
			s0.48,0.7,0.48,1.18c0,0.49-0.16,0.88-0.48,1.18s-0.72,0.45-1.2,0.45C531.54,208.13,531.15,207.98,530.84,207.67z"/>
		<path d="M584.45,232.78c-0.29-0.59-0.6-1.43-0.93-2.52c-1.09,2.94-3.51,4.41-7.27,4.41c-2.42,0-4.3-0.61-5.64-1.82
			c-1.33-1.21-2-2.91-2-5.09c0-2.33,0.8-4.09,2.41-5.27c1.61-1.18,3.97-1.77,7.09-1.77h5.32v-2c0-2.03-0.41-3.51-1.23-4.43
			c-0.82-0.92-2.17-1.39-4.04-1.39c-1.27,0-2.54,0.2-3.79,0.59c-1.26,0.39-2.39,0.97-3.39,1.73l-0.91-1.41
			c2.27-1.82,4.98-2.73,8.13-2.73c2.42,0,4.22,0.58,5.39,1.75c1.17,1.17,1.75,2.96,1.75,5.39v9.63c0,2.36,0.56,4.2,1.68,5.5
			l-1.14,1.14C585.21,233.94,584.74,233.37,584.45,232.78z M581.47,231.1c1.3-1.23,1.95-2.83,1.95-4.79v-3.86h-5.09
			c-2.76,0-4.75,0.42-5.98,1.27c-1.23,0.85-1.84,2.18-1.84,4c0,1.7,0.51,2.99,1.54,3.89c1.03,0.89,2.44,1.34,4.23,1.34
			C578.44,232.94,580.17,232.33,581.47,231.1z"/>
		<path d="M633.74,211.63v1.73c-0.88-0.15-1.64-0.23-2.27-0.23c-1.73,0-3.12,0.42-4.18,1.27c-0.45,0.39-0.94,0.9-1.45,1.52
			c-0.52,0.62-0.95,1.28-1.32,1.98v16.32h-1.91v-16.41c0-1.33-0.14-2.39-0.41-3.16c-0.27-0.77-0.7-1.52-1.27-2.25l1.27-1.23
			c0.67,0.64,1.2,1.36,1.61,2.16s0.64,1.64,0.7,2.52c0.39-0.79,0.86-1.5,1.41-2.14c0.55-0.64,1.09-1.12,1.64-1.46
			c1.03-0.64,2.3-0.95,3.82-0.95C631.8,211.31,632.59,211.42,633.74,211.63z"/>
		<path d="M668.19,207.67c-0.3-0.3-0.45-0.7-0.45-1.18c0-0.48,0.15-0.88,0.45-1.18s0.7-0.45,1.18-0.45c0.48,0,0.89,0.15,1.2,0.45
			c0.32,0.3,0.48,0.7,0.48,1.18c0,0.49-0.16,0.88-0.48,1.18c-0.32,0.3-0.72,0.45-1.2,0.45
			C668.88,208.13,668.49,207.98,668.19,207.67z M668.37,211.54h2.04v22.72h-2.04V211.54z"/>
		<path d="M721.88,232.78c-0.29-0.59-0.6-1.43-0.93-2.52c-1.09,2.94-3.51,4.41-7.27,4.41c-2.42,0-4.3-0.61-5.64-1.82
			c-1.33-1.21-2-2.91-2-5.09c0-2.33,0.8-4.09,2.41-5.27c1.61-1.18,3.97-1.77,7.09-1.77h5.32v-2c0-2.03-0.41-3.51-1.23-4.43
			c-0.82-0.92-2.17-1.39-4.04-1.39c-1.27,0-2.54,0.2-3.79,0.59c-1.26,0.39-2.39,0.97-3.39,1.73l-0.91-1.41
			c2.27-1.82,4.98-2.73,8.13-2.73c2.42,0,4.22,0.58,5.39,1.75c1.17,1.17,1.75,2.96,1.75,5.39v9.63c0,2.36,0.56,4.2,1.68,5.5
			l-1.14,1.14C722.65,233.94,722.17,233.37,721.88,232.78z M718.91,231.1c1.3-1.23,1.95-2.83,1.95-4.79v-3.86h-5.09
			c-2.76,0-4.75,0.42-5.98,1.27c-1.23,0.85-1.84,2.18-1.84,4c0,1.7,0.51,2.99,1.54,3.89c1.03,0.89,2.44,1.34,4.23,1.34
			C715.88,232.94,717.6,232.33,718.91,231.1z"/>
	</g>
</g>
<g>
	<path class="st0" d="M221.32,146.57C221.32,146.57,221.32,146.57,221.32,146.57l-4.66,0c0,0,0,0,0,0h-0.2
		c0,2.66-0.14,5.29-0.39,7.88c-13.64-2.55-28.43-2.2-44.05,1.02c0.3,1.04,0.63,2.35,0.92,3.89c15.15-3.11,29.47-3.43,42.63-0.94
		c-0.28,1.85-0.64,3.66-1.04,5.46c-16.31-2.75-30.7-1.06-40.96,1.3c0.04,1.01,0.05,2.06,0.01,3.15c-0.01,0.32-0.05,0.65-0.07,0.98
		c9.86-2.37,23.97-4.2,40.04-1.54c-0.47,1.69-0.99,3.35-1.57,4.99c-17.17-2.69-31.06,0.2-39.47,2.98c-0.12,0.48-0.23,0.95-0.37,1.43
		c2.98,0.28,4.95,0.74,5.2,0.8c0.25,0.06,0.48,0.17,0.69,0.31c7.91-2.08,19.11-3.65,32.49-1.69c-0.66,1.6-1.36,3.17-2.12,4.71
		c-8.74-0.68-21.08,0.48-31.08,3.67c-0.85,1.9-1.78,3.65-2.78,5.27c9.27-3.85,22.46-5.48,31.82-5.06c-0.99,1.76-2.04,3.49-3.16,5.17
		c-10.99,0.62-20.99,2.83-29.71,6.6c-3.61,1.56-7.12,3.35-10.51,5.33c-0.93,0.62-1.87,1.18-2.8,1.7
		c-9.26,5.83-17.53,13.18-24.36,21.71c-3.05-0.06-6.06-0.28-9.03-0.68c5.04-6.91,9.9-11.55,14.8-15.76
		c-0.97,0.06-1.83,0.08-2.51,0.08c-0.89,0-1.51-0.03-1.8-0.05c-0.27,0.02-0.81,0.05-1.58,0.05c-0.07,0-0.14,0-0.21,0
		c-4.25,3.93-8.65,8.6-13.1,14.97c-2.99-0.57-5.92-1.3-8.78-2.19c3.41-4.48,7.87-9.39,12.56-13.79c-1.43-0.3-2.95-0.71-4.51-1.21
		c-4.55,4.44-8.81,9.26-12.03,13.63c-2.24-0.84-4.44-1.77-6.58-2.8c3.54-4.85,8.09-9.73,12-13.6c-1.19-0.62-2.37-1.33-3.55-2.11
		c-3.99,4.01-8.52,8.94-12.05,13.87c-2.05-1.12-4.05-2.34-5.99-3.63c4.49-5.97,9.15-11.08,12.61-14.63
		c-0.25-0.24-0.5-0.48-0.75-0.74c-1.09-1.13-2.15-2.36-3.16-3.7c-0.66-0.88-1.29-1.82-1.91-2.79c-6.47-3.54-17.6-7.72-32.44-6.08
		c-1.05-1.91-2-3.87-2.89-5.86c5.46-0.67,11.02-0.64,16.57,0.11c5.08,0.69,10.03,1.98,14.74,3.81c-0.16-0.41-0.32-0.81-0.47-1.23
		c-0.05-0.14-0.1-0.28-0.15-0.42c-0.21-0.6-0.16-1.27,0.14-1.83c0.16-0.29,0.38-0.54,0.64-0.74c-4.61-1.69-9.43-2.89-14.37-3.56
		c-6.26-0.85-12.54-0.84-18.7,0.02c-0.73-1.9-1.39-3.84-1.97-5.81c7.03-1.45,14.27-1.7,21.55-0.71c6.55,0.89,12.84,2.75,18.7,5.52
		c-0.3-1.6-0.49-3.15-0.59-4.65c-5.57-2.37-11.46-4.01-17.58-4.84c-7.81-1.06-15.58-0.78-23.13,0.81c-0.46-1.89-0.85-3.8-1.17-5.74
		c8.15-2.2,16.62-2.73,25.18-1.56c5.85,0.8,11.51,2.37,16.83,4.67c0.11-1.06,0.25-2.06,0.41-2.98c0.07-0.39,0.14-0.75,0.22-1.11
		c-5.38-2.22-11.06-3.75-16.93-4.55c-8.92-1.21-17.75-0.68-26.27,1.54c-0.33-2.91-0.51-5.87-0.51-8.87h-0.21c0,0,0,0,0,0h-4.66
		c0,0,0,0,0,0l-0.12,0c0,46.41,37.75,84.16,84.16,84.16s84.13-37.75,84.13-84.16L221.32,146.57z M75.08,195.46
		c-1.8-2.28-3.48-4.66-5.02-7.13c16.2-1.24,27.5,5.02,31.9,8.02c-1.28,1.35-2.69,2.88-4.17,4.54
		C90.7,196.28,81.78,195.07,75.08,195.46z M78.41,199.42c5.04,0.13,11.41,1.23,16.75,4.53c-1.63,1.94-3.3,4.01-4.95,6.21
		C85.92,206.99,81.97,203.38,78.41,199.42z M159.31,222.6c8.41-8.53,16.4-12.73,28.03-14.71
		C179.18,214.55,169.68,219.6,159.31,222.6z M192.64,203.15c-17.85,1.86-28.35,7.4-40.32,21.14c-3.65,0.7-7.39,1.17-11.2,1.35
		c9.26-10.74,20.95-19.35,34.03-25.01c7.43-3.21,15.86-5.23,25.1-6.05C197.92,197.61,195.38,200.48,192.64,203.15z"/>
	<path class="st1" d="M171.12,153.01c-0.45-1.07-1.62-1.62-2.73-1.28c-0.8,0.24-1.59,0.51-2.37,0.78
		c0.43-14.17-5.98-22.11-6.26-22.46c-0.64-0.77-1.72-1.02-2.63-0.63c-1.9,0.83-3.7,1.84-5.37,3.02
		c-2.23-11.57-12.92-17.74-13.4-18.01c-0.68-0.38-1.53-0.38-2.21,0c-0.48,0.27-11.17,6.44-13.4,18.01
		c-1.67-1.18-3.47-2.19-5.37-3.02c-0.91-0.4-1.99-0.14-2.63,0.63c-0.29,0.35-6.69,8.29-6.26,22.46c-0.78-0.27-1.57-0.54-2.37-0.78
		c-1.1-0.34-2.28,0.21-2.73,1.28c-0.09,0.2-0.93,2.27-1.61,5.55c-0.07,0.36-0.15,0.72-0.22,1.11c-0.16,0.92-0.3,1.92-0.41,2.98
		c-0.06,0.59-0.12,1.19-0.15,1.82c-0.08,1.4-0.1,2.9-0.01,4.46c0.01,0.12,0.02,0.25,0.03,0.38c0.09,1.49,0.28,3.05,0.59,4.65
		c0.02,0.1,0.03,0.2,0.06,0.31c0.2,1,0.44,2.02,0.74,3.04c-1.29,0.12-2.39,0.28-3.24,0.42c-1.12,0.18-1.81,0.34-1.96,0.38
		c-0.3,0.07-0.58,0.21-0.82,0.39c-0.26,0.19-0.48,0.44-0.64,0.74c-0.3,0.56-0.35,1.23-0.14,1.83c0.05,0.14,0.1,0.28,0.15,0.42
		c0.15,0.42,0.31,0.82,0.47,1.23c0.32,0.84,0.66,1.66,1.01,2.44c0.25,0.56,0.51,1.1,0.78,1.64c0.46,0.92,0.94,1.81,1.43,2.66v0
		c0.26,0.44,0.53,0.85,0.8,1.28c0.62,0.97,1.25,1.92,1.91,2.79c1.01,1.34,2.07,2.57,3.16,3.7c0.25,0.26,0.5,0.49,0.75,0.74
		c0.59,0.58,1.19,1.14,1.8,1.66c0.3,0.26,0.61,0.51,0.91,0.76c0.89,0.72,1.8,1.37,2.72,1.98c1.18,0.79,2.36,1.49,3.55,2.11
		c0.15,0.08,0.31,0.17,0.46,0.25c0.68,0.34,1.35,0.66,2.02,0.96c0.97,0.43,1.93,0.81,2.87,1.15c0.42,0.15,0.84,0.28,1.25,0.41
		c1.56,0.5,3.08,0.91,4.51,1.21c0.59,0.13,1.16,0.24,1.72,0.33c3.23,0.56,5.9,0.68,7.6,0.68c0.07,0,0.15,0,0.21,0
		c0.76,0,1.31-0.03,1.58-0.05c0.3,0.02,0.92,0.05,1.8,0.05c0.69,0,1.54-0.02,2.51-0.08c2.61-0.16,6.15-0.61,10.06-1.75
		c3.18-1.07,4.06-1.64,7.74-3.09c0.26-0.14,0.52-0.28,0.78-0.43c0.94-0.52,1.87-1.08,2.8-1.7c2.4-1.6,4.76-3.55,6.96-5.94
		c1.5-1.64,2.93-3.47,4.25-5.54c0.12-0.18,0.23-0.37,0.34-0.56c1-1.62,1.93-3.37,2.78-5.27c0.09-0.21,0.19-0.41,0.28-0.63
		c0.47-1.09,0.92-2.23,1.33-3.42c0.16-0.45,0.17-0.94,0.03-1.4c-0.04-0.15-0.1-0.3-0.18-0.43c-0.18-0.34-0.45-0.61-0.77-0.81
		c-0.21-0.14-0.44-0.25-0.69-0.31c-0.25-0.06-2.22-0.52-5.2-0.8c0.14-0.48,0.25-0.96,0.37-1.43c0.22-0.91,0.42-1.8,0.57-2.68
		c0.22-1.29,0.34-2.53,0.42-3.75c0.02-0.32,0.06-0.66,0.07-0.98c0.05-1.09,0.03-2.14-0.01-3.15c-0.08-2.15-0.32-4.13-0.63-5.82
		c0,0,0-0.01,0-0.01c-0.28-1.55-0.62-2.86-0.92-3.89c-0.07-0.25-0.14-0.49-0.21-0.71C171.43,153.78,171.16,153.12,171.12,153.01z
		 M163.76,158.26c0.23-0.1,0.47-0.2,0.71-0.3c1.03-0.44,2.09-0.85,3.17-1.22c0.23,0.8,0.5,1.82,0.73,3.02
		c0.48,2.44,0.85,5.63,0.64,9.2c-0.09,1.53-0.29,3.13-0.64,4.78c-0.23,1.08-0.51,2.17-0.87,3.28c-0.27-0.01-0.56-0.01-0.88-0.01
		c-1.92,0.01-4.77,0.2-8.03,0.95c-0.54,0.13-1.1,0.27-1.66,0.42c-0.47,0.12-0.93,0.26-1.39,0.4c-1.37,0.43-2.69,0.94-3.94,1.52
		c-0.15-0.61-0.35-1.28-0.6-2.01c-0.08-0.24-0.17-0.49-0.27-0.74c-0.06-0.16-0.13-0.33-0.19-0.5c-0.2-0.5-0.43-1.02-0.68-1.56
		c-0.34-0.71-0.73-1.44-1.17-2.19c-0.16-0.26-0.32-0.53-0.5-0.79c-0.24-0.37-0.49-0.75-0.76-1.12c0.92-1.49,2.87-4.17,6.35-7.05
		c1.65-1.34,3.36-2.49,4.92-3.42c1.23-0.74,2.37-1.35,3.31-1.82C162.72,158.74,163.33,158.46,163.76,158.26z M144.31,167.75
		c-0.81-0.81-1.85-1.73-3.06-2.59c-0.23-0.16-0.47-0.33-0.71-0.49c-0.49-0.32-1-0.62-1.53-0.9c-0.27-0.14-0.54-0.27-0.82-0.4
		c-0.05-0.02-0.1-0.04-0.15-0.06c-0.03-0.01-0.06-0.02-0.09-0.03c-0.02-0.01-0.04-0.01-0.07-0.02c-0.04-0.01-0.07-0.02-0.11-0.03
		c-0.15-0.04-0.3-0.06-0.46-0.06c-0.04,0-0.08,0-0.11,0c-0.16,0-0.31,0.02-0.46,0.06c-0.06,0.01-0.12,0.03-0.17,0.05
		c-0.08,0.02-0.16,0.05-0.24,0.09c-2.57,1.17-4.69,2.96-6.12,4.39c-0.65-0.95-1.36-1.82-2.03-2.58c-0.72-0.81-1.4-1.49-1.94-2
		c0.11-0.61,0.24-1.22,0.41-1.82c0.64-2.19,2.01-5.42,4.88-9.1c0.53-0.68,1.11-1.38,1.75-2.09c0.29-0.31,0.58-0.6,0.86-0.89
		c1.23-1.22,2.36-2.18,3.13-2.79c0.93,0.74,2.36,1.95,3.87,3.54c2.93,3.22,4.7,6.21,5.76,8.64c0.12,0.28,0.24,0.56,0.34,0.82
		c0.16,0.4,0.29,0.77,0.41,1.13c0.12,0.36,0.23,0.71,0.32,1.03c0.13,0.51,0.23,0.99,0.32,1.47c0,0.02,0.01,0.04,0.01,0.05
		C147.24,164.15,145.65,165.8,144.31,167.75z M157.25,134.37c1.4,2.33,3.79,7.31,4.22,14.58c0.05,0.84,0.07,1.71,0.06,2.61
		c-0.01,0.9-0.05,1.83-0.12,2.79c-0.27,0.12-0.53,0.24-0.79,0.37c-1.14,0.54-2.24,1.11-3.3,1.71c-1.84,1.04-3.57,2.17-5.18,3.4
		c-0.13-0.47-0.29-0.94-0.45-1.41c-0.1-0.28-0.19-0.56-0.3-0.84c-0.16-0.43-0.34-0.86-0.53-1.28c-0.09-0.21-0.19-0.42-0.29-0.64
		c-1.3-2.75-3.09-5.4-5.37-7.93c1.56-3.81,4.03-6.82,5.4-8.31C152.55,137.37,154.78,135.67,157.25,134.37z M135.69,120.28
		c0.12-0.1,0.24-0.19,0.35-0.28c0.46-0.36,0.87-0.66,1.21-0.9h0c1.02,0.72,2.68,2,4.38,3.79c0.14,0.15,0.28,0.3,0.42,0.46
		c0.28,0.31,0.57,0.64,0.85,0.98c2.38,2.9,4.53,6.82,4.74,11.61c-2.57,2.61-4.3,5.31-5.42,7.45c-0.16,0.31-0.31,0.6-0.44,0.88
		c0,0,0,0,0,0c0,0,0,0,0,0c-0.41-0.37-0.83-0.74-1.27-1.1c-0.73-0.59-1.48-1.12-2.2-1.5l-0.12-0.06l-0.03-0.01l-0.02-0.01
		c-0.04-0.02-0.08-0.03-0.12-0.04c-0.07-0.02-0.13-0.05-0.2-0.07c-0.02-0.01-0.04-0.01-0.06-0.01c-0.01,0-0.03-0.01-0.04-0.01
		c-0.04-0.01-0.08-0.01-0.12-0.02c-0.06-0.01-0.13-0.02-0.19-0.03l-0.02,0l-0.01,0l-0.26,0l-0.03,0.01c-0.1,0.01-0.2,0.02-0.3,0.04
		c-0.04,0.01-0.07,0.01-0.11,0.02c-0.04,0.01-0.08,0.03-0.12,0.04c-0.07,0.02-0.13,0.04-0.2,0.07l-0.15,0.07
		c-1.15,0.61-2.4,1.61-3.48,2.6c-1.08-2.24-2.93-5.35-5.86-8.33C127.21,128.33,132.43,122.93,135.69,120.28z M113.01,149.81
		c0.02-0.57,0.05-1.13,0.1-1.68c0.55-6.82,2.82-11.51,4.16-13.75c0.62,0.33,1.23,0.68,1.83,1.06c0.3,0.19,0.59,0.39,0.88,0.59
		c0.72,0.5,1.42,1.05,2.08,1.63c0.67,0.58,1.31,1.19,1.93,1.84c1.36,1.49,3.79,4.47,5.33,8.24c-2.13,2.38-3.85,4.86-5.12,7.42
		c-0.26,0.51-0.49,1.03-0.71,1.54c-0.11,0.26-0.22,0.52-0.32,0.78c-0.3,0.78-0.57,1.57-0.79,2.36c0,0,0,0,0,0
		c-0.52-0.39-1.05-0.77-1.59-1.15c-0.9-0.62-1.83-1.23-2.8-1.8c-0.39-0.23-0.78-0.45-1.18-0.67c-1.19-0.66-2.43-1.28-3.71-1.86
		C112.98,152.75,112.96,151.24,113.01,149.81z M105.66,163.06c0.06-0.52,0.12-1.03,0.19-1.51c0.01-0.08,0.02-0.17,0.04-0.25
		c0.06-0.37,0.12-0.74,0.18-1.08c0.26-1.39,0.55-2.57,0.82-3.47c0.52,0.18,1.02,0.37,1.53,0.56c0.5,0.19,1,0.39,1.49,0.6
		c0.33,0.14,0.65,0.28,0.97,0.42l0.08,0.04c0.09,0.04,0.18,0.08,0.27,0.12l0.17,0.08c1.74,0.82,5.14,2.56,8.42,5.05
		c1.2,0.93,2.24,1.85,3.13,2.73c0.15,0.15,0.29,0.29,0.43,0.43c0.14,0.14,0.28,0.29,0.41,0.43c1.04,1.1,1.85,2.1,2.45,2.94
		c0.2,0.28,0.38,0.54,0.54,0.78c0.09,0.13,0.17,0.26,0.25,0.38c0.02,0.03,0.04,0.07,0.06,0.1c-0.3,0.41-0.58,0.83-0.84,1.24
		c-0.13,0.21-0.26,0.41-0.38,0.61c-1.59,2.65-2.47,5.17-2.95,7.05c-1.69-0.79-3.49-1.44-5.38-1.93c-0.02,0-0.04-0.01-0.06-0.02
		c-0.25-0.07-0.5-0.13-0.74-0.2c-0.73-0.19-1.45-0.34-2.14-0.48c-1.23-0.24-2.39-0.4-3.44-0.5c-1.35-0.13-2.54-0.18-3.49-0.18
		c-0.13,0-0.26,0-0.39,0c-0.06,0-0.12,0-0.18,0c-0.03,0-0.06,0-0.09,0c-0.01-0.02-0.01-0.04-0.02-0.07
		c-0.66-2.04-1.07-4.03-1.3-5.95c-0.01-0.1-0.03-0.2-0.04-0.3c-0.08-0.76-0.14-1.51-0.17-2.23c-0.03-0.65-0.04-1.29-0.03-1.91
		C105.47,165.32,105.54,164.15,105.66,163.06z M134.74,204.96c-0.07,0-0.14,0-0.2,0c-0.12,0-0.23,0-0.35-0.01
		c-1.85-0.05-4.5-0.26-7.55-0.93c-0.57-0.12-1.14-0.26-1.73-0.42c-0.22-0.06-0.43-0.12-0.65-0.18c-0.22-0.06-0.44-0.13-0.66-0.2
		c-1.33-0.41-2.71-0.91-4.1-1.52c-1.43-0.63-2.87-1.37-4.3-2.26c-0.98-0.6-1.95-1.26-2.91-2c-1.21-0.93-2.39-1.97-3.53-3.13
		c-1.34-1.36-2.62-2.9-3.82-4.63c-0.71-1.03-1.4-2.13-2.05-3.31c-0.47-0.85-0.91-1.74-1.34-2.66c-0.25-0.54-0.49-1.09-0.73-1.65
		c0.61-0.08,1.31-0.17,2.08-0.24c0.15-0.01,0.31-0.03,0.47-0.04c0.79-0.06,1.66-0.11,2.57-0.13c0.18,0,0.37-0.01,0.55-0.01
		c0.19,0,0.38,0,0.57,0c0.27,0,0.54,0,0.81,0.01c0.31,0.01,0.63,0.02,0.95,0.03c2.34,0.1,4.88,0.41,7.44,1.06
		c0.37,0.09,0.73,0.19,1.1,0.3c1.68,0.52,3.29,1.18,4.79,1.95c0.17,0.09,0.33,0.18,0.5,0.26c0.27,0.15,0.71,0.41,0.98,0.56
		c0.49,0.3,0.92,0.59,1.33,0.89c0.5,0.37,1,0.76,1.47,1.18c0.15,0.13,0.3,0.27,0.45,0.41l0.14,0.13c0.12,0.11,0.23,0.22,0.34,0.34
		l0.12,0.12c1,1.02,1.87,2.13,2.62,3.26c0.45,0.68,0.86,1.38,1.23,2.08c0.14,0.27,0.28,0.54,0.41,0.81c0.45,0.9,0.83,1.81,1.17,2.69
		c0.1,0.26,0.2,0.53,0.29,0.79c0.09,0.25,0.16,0.49,0.24,0.73c0.34,1.05,0.61,2.04,0.82,2.95c0.18,0.82,0.32,1.65,0.45,2.47
		c0.01,0.06,0.02,0.12,0.03,0.19C134.73,204.88,134.73,204.92,134.74,204.96C134.74,204.96,134.74,204.96,134.74,204.96z
		 M137.26,196.34C137.26,196.35,137.26,196.35,137.26,196.34C137.26,196.35,137.26,196.35,137.26,196.34
		c-0.54-1.5-1.18-2.92-1.9-4.26c-0.98-1.84-2.13-3.52-3.43-5.03c-0.15-0.18-0.3-0.35-0.45-0.51c-0.09-0.1-0.18-0.2-0.26-0.29
		l-0.05-0.05c-0.07-0.07-0.14-0.14-0.21-0.22c-0.12-0.12-0.24-0.24-0.35-0.36c-1.09-1.1-2.27-2.09-3.52-2.95
		c0.04-0.16,0.08-0.34,0.12-0.53c0.47-1.96,1.49-5.07,3.6-8.1c0.96-1.34,2.08-2.56,3.32-3.66c0.97-0.86,2.01-1.64,3.14-2.35
		c0,0,0,0,0,0c1.13,0.7,2.17,1.49,3.14,2.35c1.24,1.1,2.36,2.32,3.32,3.66c0.17,0.24,0.33,0.48,0.48,0.73
		c0.93,1.45,1.61,2.89,2.12,4.19c0.57,1.48,0.92,2.78,1.12,3.71c-1.48,1.01-2.85,2.2-4.1,3.54l-0.04,0.04
		c-0.18,0.2-0.37,0.41-0.55,0.62c-0.05,0.06-0.1,0.12-0.15,0.18c-0.46,0.53-0.9,1.09-1.31,1.66c-0.21,0.29-0.42,0.58-0.62,0.87
		C139.29,191.61,138.15,193.87,137.26,196.34z M172.43,181.9c0.46,0.05,0.89,0.1,1.28,0.16c-0.45,1.08-0.93,2.11-1.43,3.1
		c-1.14,2.24-2.41,4.22-3.76,5.98c-0.27,0.35-0.54,0.7-0.82,1.03c-0.39,0.47-0.8,0.93-1.2,1.37c-1.72,1.87-3.55,3.45-5.42,4.76
		c-0.33,0.23-0.66,0.46-0.99,0.67c-0.65,0.42-1.3,0.81-1.95,1.18c-3.9,2.19-7.81,3.4-11.16,4.06c-0.56,0.11-1.1,0.2-1.63,0.28
		c-0.29,0.04-0.56,0.08-0.84,0.12c-1.12,0.15-2.13,0.23-3.03,0.28c-0.31,0.02-0.61,0.03-0.88,0.04c-0.29,0.01-0.58,0.02-0.84,0.02
		c0.14-0.93,0.3-1.86,0.5-2.77c0.04-0.17,0.08-0.34,0.12-0.51c0.52-2.14,1.36-4.7,2.69-7.25c0.19-0.36,0.39-0.73,0.6-1.09
		c0.11-0.19,0.23-0.39,0.35-0.58c0.84-1.35,1.83-2.67,3-3.87l0.13-0.13c0.05-0.05,0.1-0.1,0.14-0.14c0.02-0.02,0.04-0.04,0.06-0.06
		c0.05-0.05,0.1-0.1,0.15-0.15l0.11-0.1c0.62-0.57,1.27-1.11,1.94-1.6c0.46-0.34,0.96-0.67,1.49-0.99c0.16-0.09,0.31-0.18,0.47-0.27
		c0.09-0.05,0.19-0.11,0.28-0.16c1.66-0.9,3.45-1.66,5.32-2.24c0.52-0.15,1.03-0.29,1.55-0.41c2.24-0.54,4.45-0.82,6.52-0.94
		c0.34-0.02,0.67-0.03,0.99-0.04c0.13,0,0.26-0.01,0.39-0.01c0.32-0.01,0.65-0.01,0.96-0.01c0.76,0,1.49,0.02,2.19,0.06
		C170.72,181.74,171.62,181.82,172.43,181.9z"/>
	<path class="st1" d="M137.26,62.54c-46.39,0-84.14,37.73-84.14,84.1v0.13l4.65-0.04l0.12,0.01l0.12-0.01l0,0l42.45,0.17l0.03-0.25
		l-42-8.64c0.85-7.73,2.82-15.26,5.87-22.39l28.67,6.97l-24.79-14.78c3.39-5.99,7.54-11.51,12.34-16.43l32.08,28.91l0.18-0.17
		l-25.8-34.69c5.29-4.35,11.17-8,17.47-10.87l15.16,26.42l-6.97-29.62c6.55-2.14,13.33-3.41,20.17-3.79l4.25,42.81h0.25l4.25-42.81
		c6.7,0.37,13.34,1.59,19.74,3.64l-7,29.73l15.24-26.56c6.31,2.83,12.21,6.47,17.55,10.81l-25.95,34.9l0.18,0.17l32.31-29.12
		c4.83,4.91,9.01,10.44,12.43,16.45l-25.11,14.97l29.06-7.06c3.06,7.13,5.05,14.66,5.91,22.4l-42.43,8.73l0.03,0.25l42.9-0.17h4.91
		v-0.13C221.41,100.23,183.66,62.54,137.26,62.54z"/>
</g>
</svg>
